<svg xmlns="http://www.w3.org/2000/svg" xmlns:xlink="http://www.w3.org/1999/xlink" width="332" height="466" viewBox="0 0 332 466">
    <defs>
        <circle id="a" cx="4.267" cy="182.049" r="3.5"/>
        <circle id="b" cx="25.946" cy="182.049" r="3.5"/>
        <circle id="c" cx="47.626" cy="180.223" r="3.5"/>
        <circle id="d" cx="69.305" cy="179.005" r="3.5"/>
        <circle id="e" cx="90.984" cy="174.744" r="3.5"/>
        <circle id="f" cx="112.664" cy="167.438" r="3.5"/>
        <circle id="g" cx="134.343" cy="155.262" r="3.5"/>
        <circle id="h" cx="156.022" cy="136.997" r="3.5"/>
        <circle id="i" cx="177.701" cy="98.947" r="3.5"/>
        <circle id="j" cx="199.381" cy="91.336" r="3.5"/>
        <circle id="k" cx="221.06" cy="33.119" r="3.5"/>
        <circle id="l" cx="242.739" cy="3.761" r="3.5"/>
        <circle id="m" cx="4.263" cy="351.08" r="3.5"/>
        <circle id="n" cx="25.915" cy="350.173" r="3.5"/>
        <circle id="o" cx="47.567" cy="349.569" r="3.5"/>
        <circle id="p" cx="69.219" cy="348.964" r="3.5"/>
        <circle id="q" cx="90.872" cy="345.639" r="3.5"/>
        <circle id="r" cx="112.524" cy="335.664" r="3.5"/>
        <circle id="s" cx="134.176" cy="324.781" r="3.5"/>
        <circle id="t" cx="155.828" cy="299.087" r="3.5"/>
        <circle id="u" cx="177.48" cy="266.139" r="3.5"/>
        <circle id="v" cx="199.132" cy="227.144" r="3.5"/>
        <circle id="w" cx="220.784" cy="188.15" r="3.5"/>
        <circle id="x" cx="242.436" cy="176.058" r="3.5"/>
        <circle id="y" cx="264.088" cy="88.512" r="3.5"/>
        <circle id="z" cx="285.74" cy="3.753" r="3.5"/>
    </defs>
    <g fill="none" fill-rule="evenodd">
        <path fill="#EEF6FF" d="M44.052 433.56l21.983-1.226h21.523l21.957-1.358 21.878-2.91 21.691-10.169 21.984-10.692 21.952-26.333 21.522-32.744 21.838-39.158 21.987-39.104 21.236-11.54 21.868-87.468 21.526-83.348v347.82z"/>
        <path fill="#FFFBE5" d="M89.672 433.596h40.945l21.66-2.57 22.136-3.267 21.779-7.77 21.786-11.067 21.647-19.259 21.757-37.716 21.947-7.736 21.765-57.729 21.958-32.011v180.422H89.703z"/>
        <path fill="#E7E7E7" d="M1 99h330v1H1zM1 48h330v1H1zM1 155h330v1H1zM1 211h330v1H1zM1 267h330v1H1zM1 323h330v1H1zM1 379h330v1H1zM1 435h330v1H1z"/>
        <g fill="#666">
            <path d="M294.045 449.66l2.69-3.15c.79-.93.92-1.3.92-1.68v-.08c0-.72-.5-1.17-1.37-1.17-.63 0-1.2.25-1.67 1.09l-.56-.35c.34-.62 1.01-1.38 2.21-1.38 1.28 0 2.1.72 2.1 1.8v.1c0 .78-.58 1.43-1.2 2.15l-2.24 2.63h3.7v.64h-4.58v-.6zm10.68-3.57v1.12c0 2.04-.73 3.16-2.46 3.16-1.71 0-2.44-1.14-2.44-3.16v-1.12c0-2.02.76-3.15 2.44-3.15 1.7 0 2.46 1.13 2.46 3.15zm-.72 1.13v-1.14c0-1.78-.59-2.51-1.74-2.51-1.11 0-1.72.74-1.72 2.51v1.14c0 1.79.61 2.52 1.72 2.52 1.15 0 1.74-.72 1.74-2.52zm5.08 3.04h-.7v-6.33l-1.74 1.06-.32-.56 2.23-1.38h.53v7.21zm3.78-5.49v.12c0 .78.55 1.41 1.41 1.41.86 0 1.41-.63 1.41-1.41v-.12c0-.74-.56-1.21-1.41-1.21-.86 0-1.41.47-1.41 1.21zm-.2 3.52v.12c0 .74.61 1.33 1.61 1.33 1.01 0 1.61-.59 1.61-1.33v-.12c0-.85-.66-1.42-1.61-1.42-.93 0-1.61.55-1.61 1.42zm-.71.14v-.17c0-.79.54-1.45 1.32-1.69-.69-.32-1.09-.92-1.09-1.67v-.16c0-1.03.88-1.8 2.09-1.8s2.09.77 2.09 1.8v.16c0 .75-.4 1.35-1.1 1.67.78.23 1.33.9 1.33 1.69v.17c0 1.15-.93 1.94-2.32 1.94-1.39 0-2.32-.79-2.32-1.94zm6.04 2.12v-1h1.01v1h-1.01zm7.18-4.46v1.12c0 2.04-.73 3.16-2.46 3.16-1.71 0-2.44-1.14-2.44-3.16v-1.12c0-2.02.76-3.15 2.44-3.15 1.7 0 2.46 1.13 2.46 3.15zm-.72 1.13v-1.14c0-1.78-.59-2.51-1.74-2.51-1.11 0-1.72.74-1.72 2.51v1.14c0 1.79.61 2.52 1.72 2.52 1.15 0 1.74-.72 1.74-2.52zm2.66-2.8l-.55-.36c.36-.58.98-1.12 2.08-1.12 1.31 0 2.13.72 2.13 1.8v.1c0 .57-.28 1.29-1.24 1.62.99.17 1.52.84 1.52 1.68v.15c0 1.03-.65 2.08-2.42 2.08-.84 0-1.63-.26-2.31-.8l.35-.56c.7.51 1.3.72 1.96.72 1.26 0 1.73-.76 1.73-1.43v-.13c0-1.09-.98-1.37-1.67-1.37h-.81v-.6h.84c.9 0 1.34-.75 1.34-1.37v-.08c0-.72-.54-1.17-1.41-1.17-.57 0-1.13.19-1.54.84zM47.045 449.66l2.69-3.15c.79-.93.92-1.3.92-1.68v-.08c0-.72-.5-1.17-1.37-1.17-.63 0-1.2.25-1.67 1.09l-.56-.35c.34-.62 1.01-1.38 2.21-1.38 1.28 0 2.1.72 2.1 1.8v.1c0 .78-.58 1.43-1.2 2.15l-2.24 2.63h3.7v.64h-4.58v-.6zm10.68-3.57v1.12c0 2.04-.73 3.16-2.46 3.16-1.71 0-2.44-1.14-2.44-3.16v-1.12c0-2.02.76-3.15 2.44-3.15 1.7 0 2.46 1.13 2.46 3.15zm-.72 1.13v-1.14c0-1.78-.59-2.51-1.74-2.51-1.11 0-1.72.74-1.72 2.51v1.14c0 1.79.61 2.52 1.72 2.52 1.15 0 1.74-.72 1.74-2.52zm5.08 3.04h-.7v-6.33l-1.74 1.06-.32-.56 2.23-1.38h.53v7.21zm6.94-2.04v-.13c0-1.15-.59-1.66-1.63-1.66-.61 0-1.1.26-1.42.57h-.66l.23-3.95h3.71v.64h-3.09l-.11 2.62c.32-.3.91-.51 1.51-.51 1.42 0 2.15.98 2.15 2.26v.15c0 1.03-.64 2.16-2.44 2.16-.98 0-1.7-.31-2.34-.8l.36-.57c.69.53 1.31.73 1.98.73 1.29 0 1.75-.85 1.75-1.51zm1.97 2.33v-1h1.01v1h-1.01zm7.18-4.46v1.12c0 2.04-.73 3.16-2.46 3.16-1.71 0-2.44-1.14-2.44-3.16v-1.12c0-2.02.76-3.15 2.44-3.15 1.7 0 2.46 1.13 2.46 3.15zm-.72 1.13v-1.14c0-1.78-.59-2.51-1.74-2.51-1.11 0-1.72.74-1.72 2.51v1.14c0 1.79.61 2.52 1.72 2.52 1.15 0 1.74-.72 1.74-2.52zm2.66-2.8l-.55-.36c.36-.58.98-1.12 2.08-1.12 1.31 0 2.13.72 2.13 1.8v.1c0 .57-.28 1.29-1.24 1.62.99.17 1.52.84 1.52 1.68v.15c0 1.03-.65 2.08-2.42 2.08-.84 0-1.63-.26-2.31-.8l.35-.56c.7.51 1.3.72 1.96.72 1.26 0 1.73-.76 1.73-1.43v-.13c0-1.09-.98-1.37-1.67-1.37h-.81v-.6h.84c.9 0 1.34-.75 1.34-1.37v-.08c0-.72-.54-1.17-1.41-1.17-.57 0-1.13.19-1.54.84zM132.378 449.66l2.69-3.15c.79-.93.92-1.3.92-1.68v-.08c0-.72-.5-1.17-1.37-1.17-.63 0-1.2.25-1.67 1.09l-.56-.35c.34-.62 1.01-1.38 2.21-1.38 1.28 0 2.1.72 2.1 1.8v.1c0 .78-.58 1.43-1.2 2.15l-2.24 2.63h3.7v.64h-4.58v-.6zm10.68-3.57v1.12c0 2.04-.73 3.16-2.46 3.16-1.71 0-2.44-1.14-2.44-3.16v-1.12c0-2.02.76-3.15 2.44-3.15 1.7 0 2.46 1.13 2.46 3.15zm-.72 1.13v-1.14c0-1.78-.59-2.51-1.74-2.51-1.11 0-1.72.74-1.72 2.51v1.14c0 1.79.61 2.52 1.72 2.52 1.15 0 1.74-.72 1.74-2.52zm5.08 3.04h-.7v-6.33l-1.74 1.06-.32-.56 2.23-1.38h.53v7.21zm7.35-6.83l-.33.57c-.45-.26-.98-.43-1.53-.43-1.35 0-1.84 1.13-1.95 3.04.22-.43.81-1.01 1.82-1.01 1.23 0 2.29.82 2.29 2.23v.24c0 1.42-1.02 2.3-2.36 2.3-1.36 0-2.44-.92-2.44-2.93v-.24c0-3.1 1.01-4.26 2.65-4.26.65 0 1.31.19 1.85.49zm-3.74 4.37v.13c0 1.08.68 1.81 1.66 1.81.98 0 1.69-.62 1.69-1.7v-.15c0-1.08-.8-1.68-1.68-1.68-.84 0-1.67.67-1.67 1.59zm5.3 2.75v-1h1.01v1h-1.01zm7.18-4.46v1.12c0 2.04-.73 3.16-2.46 3.16-1.71 0-2.44-1.14-2.44-3.16v-1.12c0-2.02.76-3.15 2.44-3.15 1.7 0 2.46 1.13 2.46 3.15zm-.72 1.13v-1.14c0-1.78-.59-2.51-1.74-2.51-1.11 0-1.72.74-1.72 2.51v1.14c0 1.79.61 2.52 1.72 2.52 1.15 0 1.74-.72 1.74-2.52zm2.66-2.8l-.55-.36c.36-.58.98-1.12 2.08-1.12 1.31 0 2.13.72 2.13 1.8v.1c0 .57-.28 1.29-1.24 1.62.99.17 1.52.84 1.52 1.68v.15c0 1.03-.65 2.08-2.42 2.08-.84 0-1.63-.26-2.31-.8l.35-.56c.7.51 1.3.72 1.96.72 1.26 0 1.73-.76 1.73-1.43v-.13c0-1.09-.98-1.37-1.67-1.37h-.81v-.6h.84c.9 0 1.34-.75 1.34-1.37v-.08c0-.72-.54-1.17-1.41-1.17-.57 0-1.13.19-1.54.84zM215.712 449.66l2.69-3.15c.79-.93.92-1.3.92-1.68v-.08c0-.72-.5-1.17-1.37-1.17-.63 0-1.2.25-1.67 1.09l-.56-.35c.34-.62 1.01-1.38 2.21-1.38 1.28 0 2.1.72 2.1 1.8v.1c0 .78-.58 1.43-1.2 2.15l-2.24 2.63h3.7v.64h-4.58v-.6zm10.68-3.57v1.12c0 2.04-.73 3.16-2.46 3.16-1.71 0-2.44-1.14-2.44-3.16v-1.12c0-2.02.76-3.15 2.44-3.15 1.7 0 2.46 1.13 2.46 3.15zm-.72 1.13v-1.14c0-1.78-.59-2.51-1.74-2.51-1.11 0-1.72.74-1.72 2.51v1.14c0 1.79.61 2.52 1.72 2.52 1.15 0 1.74-.72 1.74-2.52zm5.08 3.04h-.7v-6.33l-1.74 1.06-.32-.56 2.23-1.38h.53v7.21zm7.64-6.67l-2.92 6.67h-.79l2.93-6.57h-4.05v-.64h4.83v.54zm1.27 6.96v-1h1.01v1h-1.01zm7.18-4.46v1.12c0 2.04-.73 3.16-2.46 3.16-1.71 0-2.44-1.14-2.44-3.16v-1.12c0-2.02.76-3.15 2.44-3.15 1.7 0 2.46 1.13 2.46 3.15zm-.72 1.13v-1.14c0-1.78-.59-2.51-1.74-2.51-1.11 0-1.72.74-1.72 2.51v1.14c0 1.79.61 2.52 1.72 2.52 1.15 0 1.74-.72 1.74-2.52zm2.66-2.8l-.55-.36c.36-.58.98-1.12 2.08-1.12 1.31 0 2.13.72 2.13 1.8v.1c0 .57-.28 1.29-1.24 1.62.99.17 1.52.84 1.52 1.68v.15c0 1.03-.65 2.08-2.42 2.08-.84 0-1.63-.26-2.31-.8l.35-.56c.7.51 1.3.72 1.96.72 1.26 0 1.73-.76 1.73-1.43v-.13c0-1.09-.98-1.37-1.67-1.37h-.81v-.6h.84c.9 0 1.34-.75 1.34-1.37v-.08c0-.72-.54-1.17-1.41-1.17-.57 0-1.13.19-1.54.84z"/>
        </g>
        <g fill="#666">
            <path d="M2.39 35.42l-.55-.36c.36-.58.98-1.12 2.08-1.12 1.31 0 2.13.72 2.13 1.8v.1c0 .57-.28 1.29-1.24 1.62.99.17 1.52.84 1.52 1.68v.15c0 1.03-.65 2.08-2.42 2.08-.84 0-1.63-.26-2.31-.8l.35-.56c.7.51 1.3.72 1.96.72 1.26 0 1.73-.76 1.73-1.43v-.13c0-1.09-.98-1.37-1.67-1.37h-.81v-.6H4c.9 0 1.34-.75 1.34-1.37v-.08c0-.72-.54-1.17-1.41-1.17-.57 0-1.13.19-1.54.84zm5.08 7.33l.42-2.25h.88l-.72 2.25h-.58zm6.73-3.53v-.13c0-1.15-.59-1.66-1.63-1.66-.61 0-1.1.26-1.42.57h-.66l.23-3.95h3.71v.64h-3.09l-.11 2.62c.32-.3.91-.51 1.51-.51 1.42 0 2.15.98 2.15 2.26v.15c0 1.03-.64 2.16-2.44 2.16-.98 0-1.7-.31-2.34-.8l.36-.57c.69.53 1.31.73 1.98.73 1.29 0 1.75-.85 1.75-1.51zm6.7-2.13v1.12c0 2.04-.73 3.16-2.46 3.16-1.71 0-2.44-1.14-2.44-3.16v-1.12c0-2.02.76-3.15 2.44-3.15 1.7 0 2.46 1.13 2.46 3.15zm-.72 1.13v-1.14c0-1.78-.59-2.51-1.74-2.51-1.11 0-1.72.74-1.72 2.51v1.14c0 1.79.61 2.52 1.72 2.52 1.15 0 1.74-.72 1.74-2.52zm6.72-1.13v1.12c0 2.04-.73 3.16-2.46 3.16-1.71 0-2.44-1.14-2.44-3.16v-1.12c0-2.02.76-3.15 2.44-3.15 1.7 0 2.46 1.13 2.46 3.15zm-.72 1.13v-1.14c0-1.78-.59-2.51-1.74-2.51-1.11 0-1.72.74-1.72 2.51v1.14c0 1.79.61 2.52 1.72 2.52 1.15 0 1.74-.72 1.74-2.52zM6.45 424.09v1.12c0 2.04-.73 3.16-2.46 3.16-1.71 0-2.44-1.14-2.44-3.16v-1.12c0-2.02.76-3.15 2.44-3.15 1.7 0 2.46 1.13 2.46 3.15zm-.72 1.13v-1.14c0-1.78-.59-2.51-1.74-2.51-1.11 0-1.72.74-1.72 2.51v1.14c0 1.79.61 2.52 1.72 2.52 1.15 0 1.74-.72 1.74-2.52zM5.75 370.22v-.13c0-1.15-.59-1.66-1.63-1.66-.61 0-1.1.26-1.42.57h-.66l.23-3.95h3.71v.64H2.89l-.11 2.62c.32-.3.91-.51 1.51-.51 1.42 0 2.15.98 2.15 2.26v.15c0 1.03-.64 2.16-2.44 2.16-.98 0-1.7-.31-2.34-.8l.36-.57c.69.53 1.31.73 1.98.73 1.29 0 1.75-.85 1.75-1.51zm6.7-2.13v1.12c0 2.04-.73 3.16-2.46 3.16-1.71 0-2.44-1.14-2.44-3.16v-1.12c0-2.02.76-3.15 2.44-3.15 1.7 0 2.46 1.13 2.46 3.15zm-.72 1.13v-1.14c0-1.78-.59-2.51-1.74-2.51-1.11 0-1.72.74-1.72 2.51v1.14c0 1.79.61 2.52 1.72 2.52 1.15 0 1.74-.72 1.74-2.52zm6.72-1.13v1.12c0 2.04-.73 3.16-2.46 3.16-1.71 0-2.44-1.14-2.44-3.16v-1.12c0-2.02.76-3.15 2.44-3.15 1.7 0 2.46 1.13 2.46 3.15zm-.72 1.13v-1.14c0-1.78-.59-2.51-1.74-2.51-1.11 0-1.72.74-1.72 2.51v1.14c0 1.79.61 2.52 1.72 2.52 1.15 0 1.74-.72 1.74-2.52zM4.81 316.26h-.7v-6.33l-1.74 1.06-.32-.56 2.23-1.38h.53v7.21zm2.66 1.49l.42-2.25h.88l-.72 2.25h-.58zm7.43-5.66v1.12c0 2.04-.73 3.16-2.46 3.16-1.71 0-2.44-1.14-2.44-3.16v-1.12c0-2.02.76-3.15 2.44-3.15 1.7 0 2.46 1.13 2.46 3.15zm-.72 1.13v-1.14c0-1.78-.59-2.51-1.74-2.51-1.11 0-1.72.74-1.72 2.51v1.14c0 1.79.61 2.52 1.72 2.52 1.15 0 1.74-.72 1.74-2.52zm6.72-1.13v1.12c0 2.04-.73 3.16-2.46 3.16-1.71 0-2.44-1.14-2.44-3.16v-1.12c0-2.02.76-3.15 2.44-3.15 1.7 0 2.46 1.13 2.46 3.15zm-.72 1.13v-1.14c0-1.78-.59-2.51-1.74-2.51-1.11 0-1.72.74-1.72 2.51v1.14c0 1.79.61 2.52 1.72 2.52 1.15 0 1.74-.72 1.74-2.52zm6.72-1.13v1.12c0 2.04-.73 3.16-2.46 3.16-1.71 0-2.44-1.14-2.44-3.16v-1.12c0-2.02.76-3.15 2.44-3.15 1.7 0 2.46 1.13 2.46 3.15zm-.72 1.13v-1.14c0-1.78-.59-2.51-1.74-2.51-1.11 0-1.72.74-1.72 2.51v1.14c0 1.79.61 2.52 1.72 2.52 1.15 0 1.74-.72 1.74-2.52zM4.81 260.26h-.7v-6.33l-1.74 1.06-.32-.56 2.23-1.38h.53v7.21zm2.66 1.49l.42-2.25h.88l-.72 2.25h-.58zm6.73-3.53v-.13c0-1.15-.59-1.66-1.63-1.66-.61 0-1.1.26-1.42.57h-.66l.23-3.95h3.71v.64h-3.09l-.11 2.62c.32-.3.91-.51 1.51-.51 1.42 0 2.15.98 2.15 2.26v.15c0 1.03-.64 2.16-2.44 2.16-.98 0-1.7-.31-2.34-.8l.36-.57c.69.53 1.31.73 1.98.73 1.29 0 1.75-.85 1.75-1.51zm6.7-2.13v1.12c0 2.04-.73 3.16-2.46 3.16-1.71 0-2.44-1.14-2.44-3.16v-1.12c0-2.02.76-3.15 2.44-3.15 1.7 0 2.46 1.13 2.46 3.15zm-.72 1.13v-1.14c0-1.78-.59-2.51-1.74-2.51-1.11 0-1.72.74-1.72 2.51v1.14c0 1.79.61 2.52 1.72 2.52 1.15 0 1.74-.72 1.74-2.52zm6.72-1.13v1.12c0 2.04-.73 3.16-2.46 3.16-1.71 0-2.44-1.14-2.44-3.16v-1.12c0-2.02.76-3.15 2.44-3.15 1.7 0 2.46 1.13 2.46 3.15zm-.72 1.13v-1.14c0-1.78-.59-2.51-1.74-2.51-1.11 0-1.72.74-1.72 2.51v1.14c0 1.79.61 2.52 1.72 2.52 1.15 0 1.74-.72 1.74-2.52zM1.77 203.66l2.69-3.15c.79-.93.92-1.3.92-1.68v-.08c0-.72-.5-1.17-1.37-1.17-.63 0-1.2.25-1.67 1.09l-.56-.35c.34-.62 1.01-1.38 2.21-1.38 1.28 0 2.1.72 2.1 1.8v.1c0 .78-.58 1.43-1.2 2.15l-2.24 2.63h3.7v.64H1.77v-.6zm5.7 2.09l.42-2.25h.88l-.72 2.25h-.58zm7.43-5.66v1.12c0 2.04-.73 3.16-2.46 3.16-1.71 0-2.44-1.14-2.44-3.16v-1.12c0-2.02.76-3.15 2.44-3.15 1.7 0 2.46 1.13 2.46 3.15zm-.72 1.13v-1.14c0-1.78-.59-2.51-1.74-2.51-1.11 0-1.72.74-1.72 2.51v1.14c0 1.79.61 2.52 1.72 2.52 1.15 0 1.74-.72 1.74-2.52zm6.72-1.13v1.12c0 2.04-.73 3.16-2.46 3.16-1.71 0-2.44-1.14-2.44-3.16v-1.12c0-2.02.76-3.15 2.44-3.15 1.7 0 2.46 1.13 2.46 3.15zm-.72 1.13v-1.14c0-1.78-.59-2.51-1.74-2.51-1.11 0-1.72.74-1.72 2.51v1.14c0 1.79.61 2.52 1.72 2.52 1.15 0 1.74-.72 1.74-2.52zm6.72-1.13v1.12c0 2.04-.73 3.16-2.46 3.16-1.71 0-2.44-1.14-2.44-3.16v-1.12c0-2.02.76-3.15 2.44-3.15 1.7 0 2.46 1.13 2.46 3.15zm-.72 1.13v-1.14c0-1.78-.59-2.51-1.74-2.51-1.11 0-1.72.74-1.72 2.51v1.14c0 1.79.61 2.52 1.72 2.52 1.15 0 1.74-.72 1.74-2.52zM1.77 147.66l2.69-3.15c.79-.93.92-1.3.92-1.68v-.08c0-.72-.5-1.17-1.37-1.17-.63 0-1.2.25-1.67 1.09l-.56-.35c.34-.62 1.01-1.38 2.21-1.38 1.28 0 2.1.72 2.1 1.8v.1c0 .78-.58 1.43-1.2 2.15l-2.24 2.63h3.7v.64H1.77v-.6zm5.7 2.09l.42-2.25h.88l-.72 2.25h-.58zm6.73-3.53v-.13c0-1.15-.59-1.66-1.63-1.66-.61 0-1.1.26-1.42.57h-.66l.23-3.95h3.71v.64h-3.09l-.11 2.62c.32-.3.91-.51 1.51-.51 1.42 0 2.15.98 2.15 2.26v.15c0 1.03-.64 2.16-2.44 2.16-.98 0-1.7-.31-2.34-.8l.36-.57c.69.53 1.31.73 1.98.73 1.29 0 1.75-.85 1.75-1.51zm6.7-2.13v1.12c0 2.04-.73 3.16-2.46 3.16-1.71 0-2.44-1.14-2.44-3.16v-1.12c0-2.02.76-3.15 2.44-3.15 1.7 0 2.46 1.13 2.46 3.15zm-.72 1.13v-1.14c0-1.78-.59-2.51-1.74-2.51-1.11 0-1.72.74-1.72 2.51v1.14c0 1.79.61 2.52 1.72 2.52 1.15 0 1.74-.72 1.74-2.52zm6.72-1.13v1.12c0 2.04-.73 3.16-2.46 3.16-1.71 0-2.44-1.14-2.44-3.16v-1.12c0-2.02.76-3.15 2.44-3.15 1.7 0 2.46 1.13 2.46 3.15zm-.72 1.13v-1.14c0-1.78-.59-2.51-1.74-2.51-1.11 0-1.72.74-1.72 2.51v1.14c0 1.79.61 2.52 1.72 2.52 1.15 0 1.74-.72 1.74-2.52zM2.39 86.67l-.55-.36c.36-.58.98-1.12 2.08-1.12 1.31 0 2.13.72 2.13 1.8v.1c0 .57-.28 1.29-1.24 1.62.99.17 1.52.84 1.52 1.68v.15c0 1.03-.65 2.08-2.42 2.08-.84 0-1.63-.26-2.31-.8l.35-.56c.7.51 1.3.72 1.96.72 1.26 0 1.73-.76 1.73-1.43v-.13c0-1.09-.98-1.37-1.67-1.37h-.81v-.6H4c.9 0 1.34-.75 1.34-1.37V87c0-.72-.54-1.17-1.41-1.17-.57 0-1.13.19-1.54.84zM7.47 94l.42-2.25h.88L8.05 94h-.58zm7.43-5.66v1.12c0 2.04-.73 3.16-2.46 3.16-1.71 0-2.44-1.14-2.44-3.16v-1.12c0-2.02.76-3.15 2.44-3.15 1.7 0 2.46 1.13 2.46 3.15zm-.72 1.13v-1.14c0-1.78-.59-2.51-1.74-2.51-1.11 0-1.72.74-1.72 2.51v1.14c0 1.79.61 2.52 1.72 2.52 1.15 0 1.74-.72 1.74-2.52zm6.72-1.13v1.12c0 2.04-.73 3.16-2.46 3.16-1.71 0-2.44-1.14-2.44-3.16v-1.12c0-2.02.76-3.15 2.44-3.15 1.7 0 2.46 1.13 2.46 3.15zm-.72 1.13v-1.14c0-1.78-.59-2.51-1.74-2.51-1.11 0-1.72.74-1.72 2.51v1.14c0 1.79.61 2.52 1.72 2.52 1.15 0 1.74-.72 1.74-2.52zm6.72-1.13v1.12c0 2.04-.73 3.16-2.46 3.16-1.71 0-2.44-1.14-2.44-3.16v-1.12c0-2.02.76-3.15 2.44-3.15 1.7 0 2.46 1.13 2.46 3.15zm-.72 1.13v-1.14c0-1.78-.59-2.51-1.74-2.51-1.11 0-1.72.74-1.72 2.51v1.14c0 1.79.61 2.52 1.72 2.52 1.15 0 1.74-.72 1.74-2.52z"/>
        </g>
        <g transform="translate(1)">
            <path fill="#666" d="M6.936 5.356c-1.668.18-2.412.228-4.872.228V2.356h3.96v-1.02H.9v5.268c3.456 0 4.464-.048 6.156-.264l-.12-.984zm3.756-1.86v1.032H9.12v3.984H7.944V.616H9.12v2.88h1.572zm-7.14 4.392v2.64H9.42v1.032H2.364V7.888h1.188zm11.472-2.256c-1.764 0-2.88-1.02-2.88-2.16v-.48c0-1.14 1.092-2.16 2.88-2.16 1.788 0 2.88 1.02 2.88 2.16v.48c0 1.14-1.116 2.16-2.88 2.16zm5.58 6.048V.616h-1.176V11.68h1.176zm-4.92-.336V7.528c1.14-.048 2.148-.12 3.144-.228l-.096-.996c-1.992.192-4.02.264-7.188.252v1.032c1.08 0 2.052 0 2.928-.024v3.78h1.212zm-.66-6.744c1.02 0 1.74-.516 1.74-1.212v-.312c0-.732-.72-1.212-1.74-1.212s-1.74.48-1.74 1.212v.312c0 .696.72 1.212 1.74 1.212zm8.256 5.244h1.368v-1.38H23.28v1.38zm0-5.352h1.368v-1.38H23.28v1.38zm15.432 2.544h-1.176V4.264h-2.232c-.108 1.032-.984 2.208-2.736 2.208-1.884 0-2.748-1.356-2.748-2.424v-.612c0-1.068.864-2.424 2.748-2.424 1.776 0 2.64 1.2 2.736 2.232h2.232V.616h1.176v6.42zm-7.284 1.596h6.096v3.156h1.188V7.612h-7.284v1.02zm2.748-4.644v-.492c0-.708-.504-1.452-1.608-1.452s-1.608.744-1.608 1.452v.492c0 .708.504 1.452 1.608 1.452s1.608-.744 1.608-1.452zm9.864.984c-1.692 0-2.724-.9-2.724-1.884v-.384c0-.984 1.032-1.884 2.724-1.884 1.692 0 2.724.9 2.724 1.884v.384c0 .984-1.032 1.884-2.724 1.884zm5.592 4.212h-1.176V8.2h-2.34v-.996h2.34V.616h1.176v8.568zm-6.06-.576v1.944h6.288v1.02h-7.476V8.608h1.188zm.936-.444h-1.176V6.58c-.84.024-1.752.036-2.736.036V5.584c2.652.012 4.428-.048 7.056-.264l.084.996a49.83 49.83 0 0 1-3.228.228v1.62zm-.468-4.188c1.02 0 1.596-.492 1.596-.96v-.24c0-.468-.576-.948-1.596-.948s-1.596.48-1.596.948v.24c0 .468.576.96 1.596.96zM273.46 11.68V7.804h4.476V6.796h-10.152v1.008h4.476v3.876h1.2zM269.2.988v4.416h7.404v-1.02h-6.216V.988H269.2zm13.08 3.66h-.012c-.072.204-.42.612-.804.936a23.44 23.44 0 0 1-1.836 1.428l-.696-.852c.768-.54 1.476-1.08 1.908-1.5.588-.576.792-1.032.792-1.908v-.468h-2.328v-1.02h5.712v1.02h-2.184v.42c0 .768.096 1.176.624 1.656.564.516 1.188.972 1.896 1.44l-.672.864a23.08 23.08 0 0 1-1.716-1.308c-.36-.3-.6-.528-.684-.708zm-1.62 4.008h6.096v3.132h1.188V7.636h-7.284v1.02zm7.284-1.596h-1.176V4.288h-2.04v-1.02h2.04V.616h1.176V7.06zm6.756 2.82V9.4c0-1.164 1.248-2.112 3.336-2.112s3.336.948 3.336 2.112v.48c0 1.164-1.248 2.112-3.336 2.112s-3.336-.948-3.336-2.112zm1.152-5.448c.072.18.324.444.684.744.576.48 1.128.948 1.752 1.416l.696-.828a23.292 23.292 0 0 1-1.956-1.584c-.576-.528-.624-.924-.624-1.668V1.108h-1.2V2.56c0 .84-.168 1.296-.78 1.908-.42.42-1.164 1.056-1.932 1.644l.708.84a34.092 34.092 0 0 0 1.836-1.56c.372-.336.744-.756.804-.96h.012zm4.356 5.376v-.336c0-.588-.84-1.212-2.172-1.212-1.332 0-2.172.624-2.172 1.212v.336c0 .588.84 1.212 2.172 1.212 1.332 0 2.172-.624 2.172-1.212zm2.688-6.516h-1.572V.616h-1.176v6.528h1.176v-2.82h1.572V3.292zm7.62 3.588l.096.972c-1.908.192-3.36.252-7.056.252V7.096c1.152 0 2.076 0 2.868-.012v-.708c-1.296-.144-1.944-.78-1.944-1.56v-.312c0-.888.852-1.584 2.532-1.584 1.68 0 2.532.708 2.532 1.584v.312c0 .78-.66 1.416-1.944 1.56v.684a48.72 48.72 0 0 0 2.916-.18zm1.848 2.148h-1.176V.616h1.176V4.18h1.56v1.032h-1.56v3.816zm-5.868-.324v1.848h6.168v1.02h-7.356V8.704h1.188zm1.104-7.152V.52h-1.176v1.032h-2.448v.996h6.036v-.996H307.6zm-.588 2.304c-.948 0-1.368.348-1.368.732v.144c0 .384.42.732 1.368.732.948 0 1.368-.348 1.368-.732v-.144c0-.384-.42-.732-1.368-.732zm10.008-2.808c1.548 0 2.472 1.116 2.472 2.412v.48c0 1.296-.924 2.412-2.472 2.412-1.56 0-2.472-1.116-2.472-2.412v-.48c0-1.308.912-2.412 2.472-2.412zm5.712 2.16h-1.116V.76h-1.128v6.288h1.128v-2.82h1.116v2.844h1.14V.616h-1.14v2.592zm-6.12 5.46h6.072v3.12h1.188v-4.14h-7.26v1.02zm.408-3.324c.876 0 1.344-.66 1.344-1.476v-.336c0-.816-.468-1.464-1.344-1.464-.876 0-1.344.624-1.344 1.464v.336c0 .816.468 1.476 1.344 1.476zM176.46 11.68V7.804h4.476V6.796h-10.152v1.008h4.476v3.876h1.2zM172.2.988v4.416h7.404v-1.02h-6.216V.988H172.2zm13.08 3.66h-.012c-.072.204-.42.612-.804.936a23.44 23.44 0 0 1-1.836 1.428l-.696-.852c.768-.54 1.476-1.08 1.908-1.5.588-.576.792-1.032.792-1.908v-.468h-2.328v-1.02h5.712v1.02h-2.184v.42c0 .768.096 1.176.624 1.656.564.516 1.188.972 1.896 1.44l-.672.864a23.08 23.08 0 0 1-1.716-1.308c-.36-.3-.6-.528-.684-.708zm-1.62 4.008h6.096v3.132h1.188V7.636h-7.284v1.02zm7.284-1.596h-1.176V4.288h-2.04v-1.02h2.04V.616h1.176V7.06zm13.524-1.824h-6.3V4.204h6.048v-.996h-6.048V2.176h6.132V1.18h-7.308v5.052h7.476v-.996zM201.3 11.68V8.248h4.476V7.24h-10.152v1.008h4.476v3.432h1.2zm8.568-5.472c.096.24.396.576.732.936.456.492.96.996 1.776 1.74l.78-.804c-.708-.624-1.212-1.092-1.728-1.656-.852-.924-.984-1.284-.984-2.232V2.656h2.316V1.624h-5.892v1.032h2.376v1.536c0 .888-.132 1.344-.924 2.22-.54.6-1.128 1.188-1.848 1.836l.78.804a31.07 31.07 0 0 0 1.896-1.896c.384-.42.6-.684.708-.948h.012zm7.032-1.5h-1.704V.616h-1.188V11.68h1.188V5.74h1.704V4.708zm3.12-3.66c1.548 0 2.472 1.116 2.472 2.412v.48c0 1.296-.924 2.412-2.472 2.412-1.56 0-2.472-1.116-2.472-2.412v-.48c0-1.308.912-2.412 2.472-2.412zm5.712 2.16h-1.116V.76h-1.128v6.288h1.128v-2.82h1.116v2.844h1.14V.616h-1.14v2.592zm-6.12 5.46h6.072v3.12h1.188v-4.14h-7.26v1.02zm.408-3.324c.876 0 1.344-.66 1.344-1.476v-.336c0-.816-.468-1.464-1.344-1.464-.876 0-1.344.624-1.344 1.464v.336c0 .816.468 1.476 1.344 1.476z"/>
            <circle cx="254" cy="6" r="6" fill="#FFD200"/>
            <circle cx="157" cy="6" r="6" fill="#2677CC"/>
        </g>
        <path stroke="#2677CC" stroke-width="2" d="M43 435.283l22.946-1.227H88.41l22.918-1.358 17.726-2.661 21.517-9.584 21.743-10.722 21.674-26.273 21.798-32.723 21.367-40.043 21.85-39.104 21.534-11.855 21.881-87.028 22.25-84.5"/>
        <path stroke="#FFD200" stroke-width="2" d="M86 435.468h21.96l21.64-.787 21.46-.59 21.997-4.284 21.518-8.002L216.42 410.2l21.537-19.035 21.726-38.445 21.711-6.606 21.438-58.406 21.756-30.996"/>
        <g>
            <g transform="translate(82 254)">
                <use fill="#FFD200" xlink:href="#a"/>
                <circle cx="4.267" cy="182.049" r="4.5" stroke="#FFF" stroke-width="2"/>
            </g>
            <g transform="translate(82 254)">
                <use fill="#FFD200" xlink:href="#b"/>
                <circle cx="25.946" cy="182.049" r="4.5" stroke="#FFF" stroke-width="2"/>
            </g>
            <g transform="translate(82 254)">
                <use fill="#FFD200" xlink:href="#c"/>
                <circle cx="47.626" cy="180.223" r="4.5" stroke="#FFF" stroke-width="2"/>
            </g>
            <g transform="translate(82 254)">
                <use fill="#FFD200" xlink:href="#d"/>
                <circle cx="69.305" cy="179.005" r="4.5" stroke="#FFF" stroke-width="2"/>
            </g>
            <g transform="translate(82 254)">
                <use fill="#FFD200" xlink:href="#e"/>
                <circle cx="90.984" cy="174.744" r="4.5" stroke="#FFF" stroke-width="2"/>
            </g>
            <g transform="translate(82 254)">
                <use fill="#FFD200" xlink:href="#f"/>
                <circle cx="112.664" cy="167.438" r="4.5" stroke="#FFF" stroke-width="2"/>
            </g>
            <g transform="translate(82 254)">
                <use fill="#FFD200" xlink:href="#g"/>
                <circle cx="134.343" cy="155.262" r="4.5" stroke="#FFF" stroke-width="2"/>
            </g>
            <g transform="translate(82 254)">
                <use fill="#FFD200" xlink:href="#h"/>
                <circle cx="156.022" cy="136.997" r="4.5" stroke="#FFF" stroke-width="2"/>
            </g>
            <g transform="translate(82 254)">
                <use fill="#FFD200" xlink:href="#i"/>
                <circle cx="177.701" cy="98.947" r="4.5" stroke="#FFF" stroke-width="2"/>
            </g>
            <g transform="translate(82 254)">
                <use fill="#FFD200" xlink:href="#j"/>
                <circle cx="199.381" cy="91.336" r="4.5" stroke="#FFF" stroke-width="2"/>
            </g>
            <g transform="translate(82 254)">
                <use fill="#FFD200" xlink:href="#k"/>
                <circle cx="221.06" cy="33.119" r="4.5" stroke="#FFF" stroke-width="2"/>
            </g>
            <g transform="translate(82 254)">
                <use fill="#FFD200" xlink:href="#l"/>
                <circle cx="242.739" cy="3.761" r="4.5" stroke="#FFF" stroke-width="2"/>
            </g>
        </g>
        <g>
            <g transform="translate(39 84)">
                <use fill="#2677CC" xlink:href="#m"/>
                <circle cx="4.263" cy="351.08" r="4.5" stroke="#FFF" stroke-width="2"/>
            </g>
            <g transform="translate(39 84)">
                <use fill="#2677CC" xlink:href="#n"/>
                <circle cx="25.915" cy="350.173" r="4.5" stroke="#FFF" stroke-width="2"/>
            </g>
            <g transform="translate(39 84)">
                <use fill="#2677CC" xlink:href="#o"/>
                <circle cx="47.567" cy="349.569" r="4.5" stroke="#FFF" stroke-width="2"/>
            </g>
            <g transform="translate(39 84)">
                <use fill="#2677CC" xlink:href="#p"/>
                <circle cx="69.219" cy="348.964" r="4.5" stroke="#FFF" stroke-width="2"/>
            </g>
            <g transform="translate(39 84)">
                <use fill="#2677CC" xlink:href="#q"/>
                <circle cx="90.872" cy="345.639" r="4.5" stroke="#FFF" stroke-width="2"/>
            </g>
            <g transform="translate(39 84)">
                <use fill="#2677CC" xlink:href="#r"/>
                <circle cx="112.524" cy="335.664" r="4.5" stroke="#FFF" stroke-width="2"/>
            </g>
            <g transform="translate(39 84)">
                <use fill="#2677CC" xlink:href="#s"/>
                <circle cx="134.176" cy="324.781" r="4.5" stroke="#FFF" stroke-width="2"/>
            </g>
            <g transform="translate(39 84)">
                <use fill="#2677CC" xlink:href="#t"/>
                <circle cx="155.828" cy="299.087" r="4.5" stroke="#FFF" stroke-width="2"/>
            </g>
            <g transform="translate(39 84)">
                <use fill="#2677CC" xlink:href="#u"/>
                <circle cx="177.48" cy="266.139" r="4.5" stroke="#FFF" stroke-width="2"/>
            </g>
            <g transform="translate(39 84)">
                <use fill="#2677CC" xlink:href="#v"/>
                <circle cx="199.132" cy="227.144" r="4.5" stroke="#FFF" stroke-width="2"/>
            </g>
            <g transform="translate(39 84)">
                <use fill="#2677CC" xlink:href="#w"/>
                <circle cx="220.784" cy="188.15" r="4.5" stroke="#FFF" stroke-width="2"/>
            </g>
            <g transform="translate(39 84)">
                <use fill="#2677CC" xlink:href="#x"/>
                <circle cx="242.436" cy="176.058" r="4.5" stroke="#FFF" stroke-width="2"/>
            </g>
            <g transform="translate(39 84)">
                <use fill="#2677CC" xlink:href="#y"/>
                <circle cx="264.088" cy="88.512" r="4.5" stroke="#FFF" stroke-width="2"/>
            </g>
            <g transform="translate(39 84)">
                <use fill="#2677CC" xlink:href="#z"/>
                <circle cx="285.74" cy="3.753" r="4.5" stroke="#FFF" stroke-width="2"/>
            </g>
        </g>
    </g>
</svg>
