<svg xmlns="http://www.w3.org/2000/svg" xmlns:xlink="http://www.w3.org/1999/xlink" width="900" height="601" viewBox="0 0 900 601">
    <defs>
        <circle id="a" cx="3.765" cy="234.26" r="3.5"/>
        <circle id="b" cx="68.173" cy="234.26" r="3.5"/>
        <circle id="c" cx="132.581" cy="231.945" r="3.5"/>
        <circle id="d" cx="196.989" cy="230.402" r="3.5"/>
        <circle id="e" cx="261.397" cy="225.001" r="3.5"/>
        <circle id="f" cx="325.805" cy="215.741" r="3.5"/>
        <circle id="g" cx="390.214" cy="200.308" r="3.5"/>
        <circle id="h" cx="454.622" cy="177.159" r="3.5"/>
        <circle id="i" cx="519.03" cy="128.932" r="3.5"/>
        <circle id="j" cx="583.438" cy="119.287" r="3.5"/>
        <circle id="k" cx="647.846" cy="45.5" r="3.5"/>
        <circle id="l" cx="712.254" cy="3.5" r="3.5"/>
        <circle id="m" cx="3.758" cy="447.288" r="3.5"/>
        <circle id="n" cx="68.181" cy="446.135" r="3.5"/>
        <circle id="o" cx="132.604" cy="445.367" r="3.5"/>
        <circle id="p" cx="197.026" cy="444.598" r="3.5"/>
        <circle id="q" cx="261.449" cy="440.371" r="3.5"/>
        <circle id="r" cx="325.871" cy="427.69" r="3.5"/>
        <circle id="s" cx="390.294" cy="413.856" r="3.5"/>
        <circle id="t" cx="454.716" cy="381.193" r="3.5"/>
        <circle id="u" cx="519.139" cy="339.307" r="3.5"/>
        <circle id="v" cx="583.562" cy="289.735" r="3.5"/>
        <circle id="w" cx="647.984" cy="240.164" r="3.5"/>
        <circle id="x" cx="712.407" cy="224.793" r="3.5"/>
        <circle id="y" cx="776.829" cy="113.5" r="3.5"/>
        <circle id="z" cx="841.5" cy="3.5" r="3.5"/>
    </defs>
    <g fill="none" fill-rule="evenodd">
        <path fill="#EEF6FF" d="M52.345 558.19l64.934-1.56h63.573l64.854-1.724 64.622-3.698 64.072-12.917 64.933-13.583 64.842-33.453 63.57-41.596 64.506-49.745 64.943-49.676 62.726-14.66 64.593-111.116 63.582-109.142v445.117z"/>
        <path fill="#FFFBE5" d="M187.134 558.453h120.941l63.98-3.265 65.385-4.15 64.328-9.87 64.351-14.06 63.94-24.466 64.264-47.913 64.827-9.827 64.288-73.336 64.858-44.308V560.1h-701.07z"/>
        <g fill="#E7E7E7">
            <path d="M0 133h900v1H0zM0 62h900v1H0zM0 204h900v1H0zM0 275h900v1H0zM0 346h900v1H0zM0 417h900v1H0zM0 488h900v1H0zM0 559h900v1H0z"/>
        </g>
        <g fill="#666">
            <path d="M854.354 578.592l3.228-3.78c.948-1.116 1.104-1.56 1.104-2.016v-.096c0-.864-.6-1.404-1.644-1.404-.756 0-1.44.3-2.004 1.308l-.672-.42c.408-.744 1.212-1.656 2.652-1.656 1.536 0 2.52.864 2.52 2.16v.12c0 .936-.696 1.716-1.44 2.58l-2.688 3.156h4.44v.768h-5.496v-.72zm12.816-4.284v1.344c0 2.448-.876 3.792-2.952 3.792-2.052 0-2.928-1.368-2.928-3.792v-1.344c0-2.424.912-3.78 2.928-3.78 2.04 0 2.952 1.356 2.952 3.78zm-.864 1.356v-1.368c0-2.136-.708-3.012-2.088-3.012-1.332 0-2.064.888-2.064 3.012v1.368c0 2.148.732 3.024 2.064 3.024 1.38 0 2.088-.864 2.088-3.024zm6.096 3.648h-.84v-7.596l-2.088 1.272-.384-.672 2.676-1.656h.636v8.652zm4.536-6.588v.144c0 .936.66 1.692 1.692 1.692s1.692-.756 1.692-1.692v-.144c0-.888-.672-1.452-1.692-1.452-1.032 0-1.692.564-1.692 1.452zm-.24 4.224v.144c0 .888.732 1.596 1.932 1.596 1.212 0 1.932-.708 1.932-1.596v-.144c0-1.02-.792-1.704-1.932-1.704-1.116 0-1.932.66-1.932 1.704zm-.852.168v-.204c0-.948.648-1.74 1.584-2.028-.828-.384-1.308-1.104-1.308-2.004v-.192c0-1.236 1.056-2.16 2.508-2.16s2.508.924 2.508 2.16v.192c0 .9-.48 1.62-1.32 2.004.936.276 1.596 1.08 1.596 2.028v.204c0 1.38-1.116 2.328-2.784 2.328-1.668 0-2.784-.948-2.784-2.328zm7.248 2.544v-1.2h1.212v1.2h-1.212zm8.616-5.352v1.344c0 2.448-.876 3.792-2.952 3.792-2.052 0-2.928-1.368-2.928-3.792v-1.344c0-2.424.912-3.78 2.928-3.78 2.04 0 2.952 1.356 2.952 3.78zm-.864 1.356v-1.368c0-2.136-.708-3.012-2.088-3.012-1.332 0-2.064.888-2.064 3.012v1.368c0 2.148.732 3.024 2.064 3.024 1.38 0 2.088-.864 2.088-3.024zm3.192-3.36l-.66-.432c.432-.696 1.176-1.344 2.496-1.344 1.572 0 2.556.864 2.556 2.16v.12c0 .684-.336 1.548-1.488 1.944 1.188.204 1.824 1.008 1.824 2.016v.18c0 1.236-.78 2.496-2.904 2.496a4.375 4.375 0 0 1-2.772-.96l.42-.672c.84.612 1.56.864 2.352.864 1.512 0 2.076-.912 2.076-1.716v-.156c0-1.308-1.176-1.644-2.004-1.644h-.972v-.72h1.008c1.08 0 1.608-.9 1.608-1.644v-.096c0-.864-.648-1.404-1.692-1.404-.684 0-1.356.228-1.848 1.008zM94.354 578.592l3.228-3.78c.948-1.116 1.104-1.56 1.104-2.016v-.096c0-.864-.6-1.404-1.644-1.404-.756 0-1.44.3-2.004 1.308l-.672-.42c.408-.744 1.212-1.656 2.652-1.656 1.536 0 2.52.864 2.52 2.16v.12c0 .936-.696 1.716-1.44 2.58l-2.688 3.156h4.44v.768h-5.496v-.72zm12.816-4.284v1.344c0 2.448-.876 3.792-2.952 3.792-2.052 0-2.928-1.368-2.928-3.792v-1.344c0-2.424.912-3.78 2.928-3.78 2.04 0 2.952 1.356 2.952 3.78zm-.864 1.356v-1.368c0-2.136-.708-3.012-2.088-3.012-1.332 0-2.064.888-2.064 3.012v1.368c0 2.148.732 3.024 2.064 3.024 1.38 0 2.088-.864 2.088-3.024zm6.096 3.648h-.84v-7.596l-2.088 1.272-.384-.672 2.676-1.656h.636v8.652zm8.328-2.448v-.156c0-1.38-.708-1.992-1.956-1.992-.732 0-1.32.312-1.704.684h-.792l.276-4.74h4.452v.768h-3.708l-.132 3.144c.384-.36 1.092-.612 1.812-.612 1.704 0 2.58 1.176 2.58 2.712v.18c0 1.236-.768 2.592-2.928 2.592-1.176 0-2.04-.372-2.808-.96l.432-.684c.828.636 1.572.876 2.376.876 1.548 0 2.1-1.02 2.1-1.812zm2.364 2.796v-1.2h1.212v1.2h-1.212zm8.616-5.352v1.344c0 2.448-.876 3.792-2.952 3.792-2.052 0-2.928-1.368-2.928-3.792v-1.344c0-2.424.912-3.78 2.928-3.78 2.04 0 2.952 1.356 2.952 3.78zm-.864 1.356v-1.368c0-2.136-.708-3.012-2.088-3.012-1.332 0-2.064.888-2.064 3.012v1.368c0 2.148.732 3.024 2.064 3.024 1.38 0 2.088-.864 2.088-3.024zm3.192-3.36l-.66-.432c.432-.696 1.176-1.344 2.496-1.344 1.572 0 2.556.864 2.556 2.16v.12c0 .684-.336 1.548-1.488 1.944 1.188.204 1.824 1.008 1.824 2.016v.18c0 1.236-.78 2.496-2.904 2.496a4.375 4.375 0 0 1-2.772-.96l.42-.672c.84.612 1.56.864 2.352.864 1.512 0 2.076-.912 2.076-1.716v-.156c0-1.308-1.176-1.644-2.004-1.644h-.972v-.72h1.008c1.08 0 1.608-.9 1.608-1.644v-.096c0-.864-.648-1.404-1.692-1.404-.684 0-1.356.228-1.848 1.008zM223.354 578.592l3.228-3.78c.948-1.116 1.104-1.56 1.104-2.016v-.096c0-.864-.6-1.404-1.644-1.404-.756 0-1.44.3-2.004 1.308l-.672-.42c.408-.744 1.212-1.656 2.652-1.656 1.536 0 2.52.864 2.52 2.16v.12c0 .936-.696 1.716-1.44 2.58l-2.688 3.156h4.44v.768h-5.496v-.72zm12.816-4.284v1.344c0 2.448-.876 3.792-2.952 3.792-2.052 0-2.928-1.368-2.928-3.792v-1.344c0-2.424.912-3.78 2.928-3.78 2.04 0 2.952 1.356 2.952 3.78zm-.864 1.356v-1.368c0-2.136-.708-3.012-2.088-3.012-1.332 0-2.064.888-2.064 3.012v1.368c0 2.148.732 3.024 2.064 3.024 1.38 0 2.088-.864 2.088-3.024zm6.096 3.648h-.84v-7.596l-2.088 1.272-.384-.672 2.676-1.656h.636v8.652zm8.328-2.448v-.156c0-1.38-.708-1.992-1.956-1.992-.732 0-1.32.312-1.704.684h-.792l.276-4.74h4.452v.768h-3.708l-.132 3.144c.384-.36 1.092-.612 1.812-.612 1.704 0 2.58 1.176 2.58 2.712v.18c0 1.236-.768 2.592-2.928 2.592-1.176 0-2.04-.372-2.808-.96l.432-.684c.828.636 1.572.876 2.376.876 1.548 0 2.1-1.02 2.1-1.812zm2.364 2.796v-1.2h1.212v1.2h-1.212zm8.616-5.352v1.344c0 2.448-.876 3.792-2.952 3.792-2.052 0-2.928-1.368-2.928-3.792v-1.344c0-2.424.912-3.78 2.928-3.78 2.04 0 2.952 1.356 2.952 3.78zm-.864 1.356v-1.368c0-2.136-.708-3.012-2.088-3.012-1.332 0-2.064.888-2.064 3.012v1.368c0 2.148.732 3.024 2.064 3.024 1.38 0 2.088-.864 2.088-3.024zm2.556 3.192l.348-.708c.54.312 1.176.528 1.86.528 1.776 0 2.268-1.368 2.34-3.612-.24.504-.972 1.248-2.184 1.248-1.476 0-2.748-1.008-2.748-2.7v-.288c0-1.704 1.224-2.796 2.832-2.796 1.608 0 2.928 1.116 2.928 3.528v.36c0 3.816-1.044 5.028-3.192 5.028-.78 0-1.536-.216-2.184-.588zm4.464-5.208v-.156c0-1.296-.816-2.208-1.992-2.208-1.176 0-2.028.78-2.028 2.076v.18c0 1.296.96 2.04 2.016 2.04 1.008 0 2.004-.828 2.004-1.932zM352.354 578.592l3.228-3.78c.948-1.116 1.104-1.56 1.104-2.016v-.096c0-.864-.6-1.404-1.644-1.404-.756 0-1.44.3-2.004 1.308l-.672-.42c.408-.744 1.212-1.656 2.652-1.656 1.536 0 2.52.864 2.52 2.16v.12c0 .936-.696 1.716-1.44 2.58l-2.688 3.156h4.44v.768h-5.496v-.72zm12.816-4.284v1.344c0 2.448-.876 3.792-2.952 3.792-2.052 0-2.928-1.368-2.928-3.792v-1.344c0-2.424.912-3.78 2.928-3.78 2.04 0 2.952 1.356 2.952 3.78zm-.864 1.356v-1.368c0-2.136-.708-3.012-2.088-3.012-1.332 0-2.064.888-2.064 3.012v1.368c0 2.148.732 3.024 2.064 3.024 1.38 0 2.088-.864 2.088-3.024zm6.096 3.648h-.84v-7.596l-2.088 1.272-.384-.672 2.676-1.656h.636v8.652zm8.82-8.196l-.396.684a3.705 3.705 0 0 0-1.836-.516c-1.62 0-2.208 1.356-2.34 3.648.264-.516.972-1.212 2.184-1.212 1.476 0 2.748.984 2.748 2.676v.288c0 1.704-1.224 2.76-2.832 2.76-1.632 0-2.928-1.104-2.928-3.516v-.288c0-3.72 1.212-5.112 3.18-5.112.78 0 1.572.228 2.22.588zm-4.488 5.244v.156c0 1.296.816 2.172 1.992 2.172 1.176 0 2.028-.744 2.028-2.04v-.18c0-1.296-.96-2.016-2.016-2.016-1.008 0-2.004.804-2.004 1.908zm6.36 3.3v-1.2h1.212v1.2h-1.212zm8.616-5.352v1.344c0 2.448-.876 3.792-2.952 3.792-2.052 0-2.928-1.368-2.928-3.792v-1.344c0-2.424.912-3.78 2.928-3.78 2.04 0 2.952 1.356 2.952 3.78zm-.864 1.356v-1.368c0-2.136-.708-3.012-2.088-3.012-1.332 0-2.064.888-2.064 3.012v1.368c0 2.148.732 3.024 2.064 3.024 1.38 0 2.088-.864 2.088-3.024zm3.192-3.36l-.66-.432c.432-.696 1.176-1.344 2.496-1.344 1.572 0 2.556.864 2.556 2.16v.12c0 .684-.336 1.548-1.488 1.944 1.188.204 1.824 1.008 1.824 2.016v.18c0 1.236-.78 2.496-2.904 2.496a4.375 4.375 0 0 1-2.772-.96l.42-.672c.84.612 1.56.864 2.352.864 1.512 0 2.076-.912 2.076-1.716v-.156c0-1.308-1.176-1.644-2.004-1.644h-.972v-.72h1.008c1.08 0 1.608-.9 1.608-1.644v-.096c0-.864-.648-1.404-1.692-1.404-.684 0-1.356.228-1.848 1.008zM481.354 578.592l3.228-3.78c.948-1.116 1.104-1.56 1.104-2.016v-.096c0-.864-.6-1.404-1.644-1.404-.756 0-1.44.3-2.004 1.308l-.672-.42c.408-.744 1.212-1.656 2.652-1.656 1.536 0 2.52.864 2.52 2.16v.12c0 .936-.696 1.716-1.44 2.58l-2.688 3.156h4.44v.768h-5.496v-.72zm12.816-4.284v1.344c0 2.448-.876 3.792-2.952 3.792-2.052 0-2.928-1.368-2.928-3.792v-1.344c0-2.424.912-3.78 2.928-3.78 2.04 0 2.952 1.356 2.952 3.78zm-.864 1.356v-1.368c0-2.136-.708-3.012-2.088-3.012-1.332 0-2.064.888-2.064 3.012v1.368c0 2.148.732 3.024 2.064 3.024 1.38 0 2.088-.864 2.088-3.024zm6.096 3.648h-.84v-7.596l-2.088 1.272-.384-.672 2.676-1.656h.636v8.652zm8.82-8.196l-.396.684a3.705 3.705 0 0 0-1.836-.516c-1.62 0-2.208 1.356-2.34 3.648.264-.516.972-1.212 2.184-1.212 1.476 0 2.748.984 2.748 2.676v.288c0 1.704-1.224 2.76-2.832 2.76-1.632 0-2.928-1.104-2.928-3.516v-.288c0-3.72 1.212-5.112 3.18-5.112.78 0 1.572.228 2.22.588zm-4.488 5.244v.156c0 1.296.816 2.172 1.992 2.172 1.176 0 2.028-.744 2.028-2.04v-.18c0-1.296-.96-2.016-2.016-2.016-1.008 0-2.004.804-2.004 1.908zm6.36 3.3v-1.2h1.212v1.2h-1.212zm8.616-5.352v1.344c0 2.448-.876 3.792-2.952 3.792-2.052 0-2.928-1.368-2.928-3.792v-1.344c0-2.424.912-3.78 2.928-3.78 2.04 0 2.952 1.356 2.952 3.78zm-.864 1.356v-1.368c0-2.136-.708-3.012-2.088-3.012-1.332 0-2.064.888-2.064 3.012v1.368c0 2.148.732 3.024 2.064 3.024 1.38 0 2.088-.864 2.088-3.024zm2.556 3.192l.348-.708c.54.312 1.176.528 1.86.528 1.776 0 2.268-1.368 2.34-3.612-.24.504-.972 1.248-2.184 1.248-1.476 0-2.748-1.008-2.748-2.7v-.288c0-1.704 1.224-2.796 2.832-2.796 1.608 0 2.928 1.116 2.928 3.528v.36c0 3.816-1.044 5.028-3.192 5.028-.78 0-1.536-.216-2.184-.588zm4.464-5.208v-.156c0-1.296-.816-2.208-1.992-2.208-1.176 0-2.028.78-2.028 2.076v.18c0 1.296.96 2.04 2.016 2.04 1.008 0 2.004-.828 2.004-1.932zM610.354 578.592l3.228-3.78c.948-1.116 1.104-1.56 1.104-2.016v-.096c0-.864-.6-1.404-1.644-1.404-.756 0-1.44.3-2.004 1.308l-.672-.42c.408-.744 1.212-1.656 2.652-1.656 1.536 0 2.52.864 2.52 2.16v.12c0 .936-.696 1.716-1.44 2.58l-2.688 3.156h4.44v.768h-5.496v-.72zm12.816-4.284v1.344c0 2.448-.876 3.792-2.952 3.792-2.052 0-2.928-1.368-2.928-3.792v-1.344c0-2.424.912-3.78 2.928-3.78 2.04 0 2.952 1.356 2.952 3.78zm-.864 1.356v-1.368c0-2.136-.708-3.012-2.088-3.012-1.332 0-2.064.888-2.064 3.012v1.368c0 2.148.732 3.024 2.064 3.024 1.38 0 2.088-.864 2.088-3.024zm6.096 3.648h-.84v-7.596l-2.088 1.272-.384-.672 2.676-1.656h.636v8.652zm9.168-8.004l-3.504 8.004h-.948l3.516-7.884h-4.86v-.768h5.796v.648zm1.524 8.352v-1.2h1.212v1.2h-1.212zm8.616-5.352v1.344c0 2.448-.876 3.792-2.952 3.792-2.052 0-2.928-1.368-2.928-3.792v-1.344c0-2.424.912-3.78 2.928-3.78 2.04 0 2.952 1.356 2.952 3.78zm-.864 1.356v-1.368c0-2.136-.708-3.012-2.088-3.012-1.332 0-2.064.888-2.064 3.012v1.368c0 2.148.732 3.024 2.064 3.024 1.38 0 2.088-.864 2.088-3.024zm3.192-3.36l-.66-.432c.432-.696 1.176-1.344 2.496-1.344 1.572 0 2.556.864 2.556 2.16v.12c0 .684-.336 1.548-1.488 1.944 1.188.204 1.824 1.008 1.824 2.016v.18c0 1.236-.78 2.496-2.904 2.496a4.375 4.375 0 0 1-2.772-.96l.42-.672c.84.612 1.56.864 2.352.864 1.512 0 2.076-.912 2.076-1.716v-.156c0-1.308-1.176-1.644-2.004-1.644h-.972v-.72h1.008c1.08 0 1.608-.9 1.608-1.644v-.096c0-.864-.648-1.404-1.692-1.404-.684 0-1.356.228-1.848 1.008zM739.354 578.592l3.228-3.78c.948-1.116 1.104-1.56 1.104-2.016v-.096c0-.864-.6-1.404-1.644-1.404-.756 0-1.44.3-2.004 1.308l-.672-.42c.408-.744 1.212-1.656 2.652-1.656 1.536 0 2.52.864 2.52 2.16v.12c0 .936-.696 1.716-1.44 2.58l-2.688 3.156h4.44v.768h-5.496v-.72zm12.816-4.284v1.344c0 2.448-.876 3.792-2.952 3.792-2.052 0-2.928-1.368-2.928-3.792v-1.344c0-2.424.912-3.78 2.928-3.78 2.04 0 2.952 1.356 2.952 3.78zm-.864 1.356v-1.368c0-2.136-.708-3.012-2.088-3.012-1.332 0-2.064.888-2.064 3.012v1.368c0 2.148.732 3.024 2.064 3.024 1.38 0 2.088-.864 2.088-3.024zm6.096 3.648h-.84v-7.596l-2.088 1.272-.384-.672 2.676-1.656h.636v8.652zm9.168-8.004l-3.504 8.004h-.948l3.516-7.884h-4.86v-.768h5.796v.648zm1.524 8.352v-1.2h1.212v1.2h-1.212zm8.616-5.352v1.344c0 2.448-.876 3.792-2.952 3.792-2.052 0-2.928-1.368-2.928-3.792v-1.344c0-2.424.912-3.78 2.928-3.78 2.04 0 2.952 1.356 2.952 3.78zm-.864 1.356v-1.368c0-2.136-.708-3.012-2.088-3.012-1.332 0-2.064.888-2.064 3.012v1.368c0 2.148.732 3.024 2.064 3.024 1.38 0 2.088-.864 2.088-3.024zm2.556 3.192l.348-.708c.54.312 1.176.528 1.86.528 1.776 0 2.268-1.368 2.34-3.612-.24.504-.972 1.248-2.184 1.248-1.476 0-2.748-1.008-2.748-2.7v-.288c0-1.704 1.224-2.796 2.832-2.796 1.608 0 2.928 1.116 2.928 3.528v.36c0 3.816-1.044 5.028-3.192 5.028-.78 0-1.536-.216-2.184-.588zm4.464-5.208v-.156c0-1.296-.816-2.208-1.992-2.208-1.176 0-2.028.78-2.028 2.076v.18c0 1.296.96 2.04 2.016 2.04 1.008 0 2.004-.828 2.004-1.932z"/>
        </g>
        <g fill="#666">
            <path d="M1.668 45.304l-.66-.432c.432-.696 1.176-1.344 2.496-1.344 1.572 0 2.556.864 2.556 2.16v.12c0 .684-.336 1.548-1.488 1.944 1.188.204 1.824 1.008 1.824 2.016v.18c0 1.236-.78 2.496-2.904 2.496a4.375 4.375 0 0 1-2.772-.96l.42-.672c.84.612 1.56.864 2.352.864 1.512 0 2.076-.912 2.076-1.716v-.156c0-1.308-1.176-1.644-2.004-1.644h-.972v-.72H3.6c1.08 0 1.608-.9 1.608-1.644V45.7c0-.864-.648-1.404-1.692-1.404-.684 0-1.356.228-1.848 1.008zM7.764 54.1l.504-2.7h1.056l-.864 2.7h-.696zm8.076-4.236v-.156c0-1.38-.708-1.992-1.956-1.992-.732 0-1.32.312-1.704.684h-.792l.276-4.74h4.452v.768h-3.708l-.132 3.144c.384-.36 1.092-.612 1.812-.612 1.704 0 2.58 1.176 2.58 2.712v.18c0 1.236-.768 2.592-2.928 2.592-1.176 0-2.04-.372-2.808-.96l.432-.684c.828.636 1.572.876 2.376.876 1.548 0 2.1-1.02 2.1-1.812zm8.04-2.556v1.344c0 2.448-.876 3.792-2.952 3.792-2.052 0-2.928-1.368-2.928-3.792v-1.344c0-2.424.912-3.78 2.928-3.78 2.04 0 2.952 1.356 2.952 3.78zm-.864 1.356v-1.368c0-2.136-.708-3.012-2.088-3.012-1.332 0-2.064.888-2.064 3.012v1.368c0 2.148.732 3.024 2.064 3.024 1.38 0 2.088-.864 2.088-3.024zm8.064-1.356v1.344c0 2.448-.876 3.792-2.952 3.792-2.052 0-2.928-1.368-2.928-3.792v-1.344c0-2.424.912-3.78 2.928-3.78 2.04 0 2.952 1.356 2.952 3.78zm-.864 1.356v-1.368c0-2.136-.708-3.012-2.088-3.012-1.332 0-2.064.888-2.064 3.012v1.368c0 2.148.732 3.024 2.064 3.024 1.38 0 2.088-.864 2.088-3.024zM6.54 543.308v1.344c0 2.448-.876 3.792-2.952 3.792-2.052 0-2.928-1.368-2.928-3.792v-1.344c0-2.424.912-3.78 2.928-3.78 2.04 0 2.952 1.356 2.952 3.78zm-.864 1.356v-1.368c0-2.136-.708-3.012-2.088-3.012-1.332 0-2.064.888-2.064 3.012v1.368c0 2.148.732 3.024 2.064 3.024 1.38 0 2.088-.864 2.088-3.024z"/>
            <path d="M6.54 543.308v1.344c0 2.448-.876 3.792-2.952 3.792-2.052 0-2.928-1.368-2.928-3.792v-1.344c0-2.424.912-3.78 2.928-3.78 2.04 0 2.952 1.356 2.952 3.78zm-.864 1.356v-1.368c0-2.136-.708-3.012-2.088-3.012-1.332 0-2.064.888-2.064 3.012v1.368c0 2.148.732 3.024 2.064 3.024 1.38 0 2.088-.864 2.088-3.024zM5.7 474.864v-.156c0-1.38-.708-1.992-1.956-1.992-.732 0-1.32.312-1.704.684h-.792l.276-4.74h4.452v.768H2.268l-.132 3.144c.384-.36 1.092-.612 1.812-.612 1.704 0 2.58 1.176 2.58 2.712v.18c0 1.236-.768 2.592-2.928 2.592-1.176 0-2.04-.372-2.808-.96l.432-.684c.828.636 1.572.876 2.376.876 1.548 0 2.1-1.02 2.1-1.812zm8.04-2.556v1.344c0 2.448-.876 3.792-2.952 3.792-2.052 0-2.928-1.368-2.928-3.792v-1.344c0-2.424.912-3.78 2.928-3.78 2.04 0 2.952 1.356 2.952 3.78zm-.864 1.356v-1.368c0-2.136-.708-3.012-2.088-3.012-1.332 0-2.064.888-2.064 3.012v1.368c0 2.148.732 3.024 2.064 3.024 1.38 0 2.088-.864 2.088-3.024zm8.064-1.356v1.344c0 2.448-.876 3.792-2.952 3.792-2.052 0-2.928-1.368-2.928-3.792v-1.344c0-2.424.912-3.78 2.928-3.78 2.04 0 2.952 1.356 2.952 3.78zm-.864 1.356v-1.368c0-2.136-.708-3.012-2.088-3.012-1.332 0-2.064.888-2.064 3.012v1.368c0 2.148.732 3.024 2.064 3.024 1.38 0 2.088-.864 2.088-3.024zM4.572 406.312h-.84v-7.596l-2.088 1.272-.384-.672 2.676-1.656h.636v8.652zm3.192 1.788l.504-2.7h1.056l-.864 2.7h-.696zm8.916-6.792v1.344c0 2.448-.876 3.792-2.952 3.792-2.052 0-2.928-1.368-2.928-3.792v-1.344c0-2.424.912-3.78 2.928-3.78 2.04 0 2.952 1.356 2.952 3.78zm-.864 1.356v-1.368c0-2.136-.708-3.012-2.088-3.012-1.332 0-2.064.888-2.064 3.012v1.368c0 2.148.732 3.024 2.064 3.024 1.38 0 2.088-.864 2.088-3.024zm8.064-1.356v1.344c0 2.448-.876 3.792-2.952 3.792-2.052 0-2.928-1.368-2.928-3.792v-1.344c0-2.424.912-3.78 2.928-3.78 2.04 0 2.952 1.356 2.952 3.78zm-.864 1.356v-1.368c0-2.136-.708-3.012-2.088-3.012-1.332 0-2.064.888-2.064 3.012v1.368c0 2.148.732 3.024 2.064 3.024 1.38 0 2.088-.864 2.088-3.024zm8.064-1.356v1.344c0 2.448-.876 3.792-2.952 3.792-2.052 0-2.928-1.368-2.928-3.792v-1.344c0-2.424.912-3.78 2.928-3.78 2.04 0 2.952 1.356 2.952 3.78zm-.864 1.356v-1.368c0-2.136-.708-3.012-2.088-3.012-1.332 0-2.064.888-2.064 3.012v1.368c0 2.148.732 3.024 2.064 3.024 1.38 0 2.088-.864 2.088-3.024zM4.572 335.312h-.84v-7.596l-2.088 1.272-.384-.672 2.676-1.656h.636v8.652zm3.192 1.788l.504-2.7h1.056l-.864 2.7h-.696zm8.076-4.236v-.156c0-1.38-.708-1.992-1.956-1.992-.732 0-1.32.312-1.704.684h-.792l.276-4.74h4.452v.768h-3.708l-.132 3.144c.384-.36 1.092-.612 1.812-.612 1.704 0 2.58 1.176 2.58 2.712v.18c0 1.236-.768 2.592-2.928 2.592-1.176 0-2.04-.372-2.808-.96l.432-.684c.828.636 1.572.876 2.376.876 1.548 0 2.1-1.02 2.1-1.812zm8.04-2.556v1.344c0 2.448-.876 3.792-2.952 3.792-2.052 0-2.928-1.368-2.928-3.792v-1.344c0-2.424.912-3.78 2.928-3.78 2.04 0 2.952 1.356 2.952 3.78zm-.864 1.356v-1.368c0-2.136-.708-3.012-2.088-3.012-1.332 0-2.064.888-2.064 3.012v1.368c0 2.148.732 3.024 2.064 3.024 1.38 0 2.088-.864 2.088-3.024zm8.064-1.356v1.344c0 2.448-.876 3.792-2.952 3.792-2.052 0-2.928-1.368-2.928-3.792v-1.344c0-2.424.912-3.78 2.928-3.78 2.04 0 2.952 1.356 2.952 3.78zm-.864 1.356v-1.368c0-2.136-.708-3.012-2.088-3.012-1.332 0-2.064.888-2.064 3.012v1.368c0 2.148.732 3.024 2.064 3.024 1.38 0 2.088-.864 2.088-3.024zM.924 263.592l3.228-3.78c.948-1.116 1.104-1.56 1.104-2.016v-.096c0-.864-.6-1.404-1.644-1.404-.756 0-1.44.3-2.004 1.308l-.672-.42c.408-.744 1.212-1.656 2.652-1.656 1.536 0 2.52.864 2.52 2.16v.12c0 .936-.696 1.716-1.44 2.58l-2.688 3.156h4.44v.768H.924v-.72zm6.84 2.508l.504-2.7h1.056l-.864 2.7h-.696zm8.916-6.792v1.344c0 2.448-.876 3.792-2.952 3.792-2.052 0-2.928-1.368-2.928-3.792v-1.344c0-2.424.912-3.78 2.928-3.78 2.04 0 2.952 1.356 2.952 3.78zm-.864 1.356v-1.368c0-2.136-.708-3.012-2.088-3.012-1.332 0-2.064.888-2.064 3.012v1.368c0 2.148.732 3.024 2.064 3.024 1.38 0 2.088-.864 2.088-3.024zm8.064-1.356v1.344c0 2.448-.876 3.792-2.952 3.792-2.052 0-2.928-1.368-2.928-3.792v-1.344c0-2.424.912-3.78 2.928-3.78 2.04 0 2.952 1.356 2.952 3.78zm-.864 1.356v-1.368c0-2.136-.708-3.012-2.088-3.012-1.332 0-2.064.888-2.064 3.012v1.368c0 2.148.732 3.024 2.064 3.024 1.38 0 2.088-.864 2.088-3.024zm8.064-1.356v1.344c0 2.448-.876 3.792-2.952 3.792-2.052 0-2.928-1.368-2.928-3.792v-1.344c0-2.424.912-3.78 2.928-3.78 2.04 0 2.952 1.356 2.952 3.78zm-.864 1.356v-1.368c0-2.136-.708-3.012-2.088-3.012-1.332 0-2.064.888-2.064 3.012v1.368c0 2.148.732 3.024 2.064 3.024 1.38 0 2.088-.864 2.088-3.024zM.924 192.592l3.228-3.78c.948-1.116 1.104-1.56 1.104-2.016v-.096c0-.864-.6-1.404-1.644-1.404-.756 0-1.44.3-2.004 1.308l-.672-.42c.408-.744 1.212-1.656 2.652-1.656 1.536 0 2.52.864 2.52 2.16v.12c0 .936-.696 1.716-1.44 2.58l-2.688 3.156h4.44v.768H.924v-.72zm6.84 2.508l.504-2.7h1.056l-.864 2.7h-.696zm8.076-4.236v-.156c0-1.38-.708-1.992-1.956-1.992-.732 0-1.32.312-1.704.684h-.792l.276-4.74h4.452v.768h-3.708l-.132 3.144c.384-.36 1.092-.612 1.812-.612 1.704 0 2.58 1.176 2.58 2.712v.18c0 1.236-.768 2.592-2.928 2.592-1.176 0-2.04-.372-2.808-.96l.432-.684c.828.636 1.572.876 2.376.876 1.548 0 2.1-1.02 2.1-1.812zm8.04-2.556v1.344c0 2.448-.876 3.792-2.952 3.792-2.052 0-2.928-1.368-2.928-3.792v-1.344c0-2.424.912-3.78 2.928-3.78 2.04 0 2.952 1.356 2.952 3.78zm-.864 1.356v-1.368c0-2.136-.708-3.012-2.088-3.012-1.332 0-2.064.888-2.064 3.012v1.368c0 2.148.732 3.024 2.064 3.024 1.38 0 2.088-.864 2.088-3.024zm8.064-1.356v1.344c0 2.448-.876 3.792-2.952 3.792-2.052 0-2.928-1.368-2.928-3.792v-1.344c0-2.424.912-3.78 2.928-3.78 2.04 0 2.952 1.356 2.952 3.78zm-.864 1.356v-1.368c0-2.136-.708-3.012-2.088-3.012-1.332 0-2.064.888-2.064 3.012v1.368c0 2.148.732 3.024 2.064 3.024 1.38 0 2.088-.864 2.088-3.024zM1.668 115.304l-.66-.432c.432-.696 1.176-1.344 2.496-1.344 1.572 0 2.556.864 2.556 2.16v.12c0 .684-.336 1.548-1.488 1.944 1.188.204 1.824 1.008 1.824 2.016v.18c0 1.236-.78 2.496-2.904 2.496a4.375 4.375 0 0 1-2.772-.96l.42-.672c.84.612 1.56.864 2.352.864 1.512 0 2.076-.912 2.076-1.716v-.156c0-1.308-1.176-1.644-2.004-1.644h-.972v-.72H3.6c1.08 0 1.608-.9 1.608-1.644v-.096c0-.864-.648-1.404-1.692-1.404-.684 0-1.356.228-1.848 1.008zm6.096 8.796l.504-2.7h1.056l-.864 2.7h-.696zm8.916-6.792v1.344c0 2.448-.876 3.792-2.952 3.792-2.052 0-2.928-1.368-2.928-3.792v-1.344c0-2.424.912-3.78 2.928-3.78 2.04 0 2.952 1.356 2.952 3.78zm-.864 1.356v-1.368c0-2.136-.708-3.012-2.088-3.012-1.332 0-2.064.888-2.064 3.012v1.368c0 2.148.732 3.024 2.064 3.024 1.38 0 2.088-.864 2.088-3.024zm8.064-1.356v1.344c0 2.448-.876 3.792-2.952 3.792-2.052 0-2.928-1.368-2.928-3.792v-1.344c0-2.424.912-3.78 2.928-3.78 2.04 0 2.952 1.356 2.952 3.78zm-.864 1.356v-1.368c0-2.136-.708-3.012-2.088-3.012-1.332 0-2.064.888-2.064 3.012v1.368c0 2.148.732 3.024 2.064 3.024 1.38 0 2.088-.864 2.088-3.024zm8.064-1.356v1.344c0 2.448-.876 3.792-2.952 3.792-2.052 0-2.928-1.368-2.928-3.792v-1.344c0-2.424.912-3.78 2.928-3.78 2.04 0 2.952 1.356 2.952 3.78zm-.864 1.356v-1.368c0-2.136-.708-3.012-2.088-3.012-1.332 0-2.064.888-2.064 3.012v1.368c0 2.148.732 3.024 2.064 3.024 1.38 0 2.088-.864 2.088-3.024z"/>
        </g>
        <g transform="translate(0 6)">
            <path fill="#666" d="M1.092 7.256v-5.59h5.447v.819H2.015v3.952c2.613 0 3.731-.039 5.59-.26l.104.806c-1.937.234-2.977.273-6.617.273zm8.71-6.37v3.237h1.82v.806h-1.82v4.459h-.91V.886h.91zM3.614 8.712v3.094h6.552v.819H2.691V8.712h.923zM16.276 6.19c-1.677 0-3.029-.923-3.029-2.249v-.546c0-1.326 1.352-2.249 3.029-2.249 1.677 0 3.029.923 3.029 2.249v.546c0 1.326-1.352 2.249-3.029 2.249zm0-4.225c-1.157 0-2.145.611-2.145 1.495v.416c0 .884.988 1.495 2.145 1.495s2.145-.611 2.145-1.495V3.46c0-.884-.988-1.495-2.145-1.495zM22.23.886v11.882h-.923V.886h.923zm-1.833 6.266l.078.793a56.988 56.988 0 0 1-3.705.234v4.212h-.936V8.218c-.936.013-2.002.026-3.302.026v-.806c3.757 0 6.123-.091 7.865-.286zm4.589 3.523v-1.3h1.313v1.3h-1.313zm0-5.746v-1.3h1.313v1.3h-1.313zm9.659 2.184c-1.833 0-2.899-1.326-2.899-2.509V3.85c0-1.183 1.066-2.509 2.899-2.509 1.82 0 2.886 1.313 2.899 2.496h2.704V.886h.91V7.75h-.91V4.643h-2.704c-.026 1.17-1.092 2.47-2.899 2.47zm0-4.953c-1.17 0-2.015.767-2.015 1.768v.598c0 1.001.845 1.768 2.015 1.768 1.17 0 2.015-.767 2.015-1.768v-.598c0-1.001-.845-1.768-2.015-1.768zm-1.092 7.098v-.806h7.605v4.407h-.91V9.258h-6.695zm13.52-3.77c-1.586 0-2.86-.832-2.86-1.937v-.494c0-1.105 1.274-1.937 2.86-1.937 1.586 0 2.86.832 2.86 1.937v.494c0 1.105-1.274 1.937-2.86 1.937zm2.34 2.561h2.678V.886h.91v9.23h-.91V8.855h-2.678v-.806zM47.073 1.9c-1.092 0-1.989.559-1.989 1.235v.338c0 .676.897 1.235 1.989 1.235s1.989-.559 1.989-1.235v-.338c0-.676-.897-1.235-1.989-1.235zm-.741 7.579v2.34h6.942v.806h-7.865V9.479h.923zm4.771-3.432l.078.793a54.67 54.67 0 0 1-3.809.247v1.885h-.923V7.1c-.871.026-1.872.026-3.068.026v-.793c3.744 0 5.486-.052 7.722-.286zM838.055 7.672h10.92v.793h-4.992v4.303h-.923V8.465h-5.005v-.793zm2.535-6.396v3.77h6.864v.806h-7.8V1.276h.936zm13.13 3.757h-.013c-.052.195-.468.624-1.014 1.105a29.721 29.721 0 0 1-1.937 1.534l-.559-.65c.767-.546 1.599-1.183 2.236-1.807.637-.624.78-1.079.78-1.781v-1.04h-2.678v-.793h6.149v.793h-2.548v1.001c0 .767.091 1.118.936 1.846.416.351 1.144.897 1.885 1.391l-.533.637a28.068 28.068 0 0 1-1.534-1.131c-.611-.494-1.118-.936-1.17-1.105zm-1.599 4.251v-.806h7.644v4.381h-.91V9.284h-6.734zm7.644-8.398v6.89h-.91V4.669h-2.483v-.806h2.483V.886h.91zm11.011 7.254c1.95 0 3.536.858 3.536 2.223v.494c0 1.365-1.586 2.223-3.536 2.223s-3.536-.858-3.536-2.223v-.494c0-1.391 1.586-2.223 3.536-2.223zm0 4.16c1.391 0 2.652-.559 2.652-1.482v-.416c0-.923-1.261-1.482-2.652-1.482-1.391 0-2.652.559-2.652 1.482v.416c0 .923 1.261 1.482 2.652 1.482zm-2.353-7.501h-.013c-.039.221-.442.624-1.014 1.17a35.838 35.838 0 0 1-1.937 1.651l-.572-.663c.702-.52 1.521-1.196 2.106-1.781.819-.819.91-1.157.91-2.132V1.419h.936v1.599c0 .962.078 1.274.949 2.054a27.758 27.758 0 0 0 1.898 1.521l-.546.637a36.674 36.674 0 0 1-1.703-1.365c-.598-.507-.949-.858-1.014-1.066zm5.824-3.913v3.003h1.82v.806h-1.82V7.88h-.91V.886h.91zm10.205 6.773l.078.767c-1.612.195-3.757.299-7.722.299v-.806c1.274 0 2.327 0 3.237-.013v-.962c-1.508-.117-2.223-.819-2.223-1.664v-.312c0-.923.858-1.677 2.678-1.677 1.82 0 2.678.767 2.678 1.677v.312c0 .845-.715 1.547-2.223 1.664v.936a42.17 42.17 0 0 0 3.497-.221zm1.755-6.773v3.965h1.781v.819h-1.781v4.212h-.91V.886h.91zm-6.435 8.658v2.288h6.76v.806h-7.683V9.544h.923zm.728-5.499c-1.222 0-1.807.468-1.807.962v.234c0 .494.585.962 1.807.962s1.807-.468 1.807-.962v-.234c0-.494-.585-.962-1.807-.962zm-3.25-2.119h2.795V.769h.91v1.157h2.795v.793h-6.5v-.793zm14.105 5.044c-1.638 0-2.613-1.209-2.613-2.457v-.676c0-1.248.975-2.457 2.613-2.457s2.613 1.209 2.613 2.457v.676c0 1.248-.975 2.457-2.613 2.457zm4.706-5.928v2.73h1.716V.886h.897v6.916h-.897V4.591h-1.716v3.185h-.897V1.042h.897zm-4.706 1.17c-1.04 0-1.716.741-1.716 1.716v.494c0 .975.676 1.716 1.716 1.716s1.716-.741 1.716-1.716v-.494c0-.975-.676-1.716-1.716-1.716zm-.403 7.098v-.806h7.722v4.355h-.91V9.31h-6.812zM735.055 7.672h10.92v.793h-4.992v4.303h-.923V8.465h-5.005v-.793zm2.535-6.396v3.77h6.864v.806h-7.8V1.276h.936zm13.13 3.757h-.013c-.052.195-.468.624-1.014 1.105a29.721 29.721 0 0 1-1.937 1.534l-.559-.65c.767-.546 1.599-1.183 2.236-1.807.637-.624.78-1.079.78-1.781v-1.04h-2.678v-.793h6.149v.793h-2.548v1.001c0 .767.091 1.118.936 1.846.416.351 1.144.897 1.885 1.391l-.533.637a28.068 28.068 0 0 1-1.534-1.131c-.611-.494-1.118-.936-1.17-1.105zm-1.599 4.251v-.806h7.644v4.381h-.91V9.284h-6.734zm7.644-8.398v6.89h-.91V4.669h-2.483v-.806h2.483V.886h.91zm14.651 5.031v.78h-7.865V1.523h7.761v.78h-6.864V3.72h6.799v.78h-6.799v1.417h6.968zm-9.451 2.171h10.92v.793h-4.992v3.887h-.923V8.881h-5.005v-.793zm18.525-6.097v.806h-2.691v1.859c0 .988.078 1.404.767 2.197.507.585 1.274 1.352 2.236 2.21l-.598.611a37.753 37.753 0 0 1-2.041-2.028c-.377-.403-.741-.806-.806-.975h-.013c-.065.234-.572.819-.949 1.222-.351.364-1.222 1.287-2.002 1.963l-.611-.611c.819-.728 1.56-1.443 2.158-2.119.819-.923.936-1.417.936-2.405V2.797h-2.73v-.806h6.344zm2.522-1.105v4.537h1.976v.819h-1.976v6.526h-.923V.886h.923zm5.343 6.084c-1.638 0-2.613-1.209-2.613-2.457v-.676c0-1.248.975-2.457 2.613-2.457s2.613 1.209 2.613 2.457v.676c0 1.248-.975 2.457-2.613 2.457zm4.706-5.928v2.73h1.716V.886h.897v6.916h-.897V4.591h-1.716v3.185h-.897V1.042h.897zm-4.706 1.17c-1.04 0-1.716.741-1.716 1.716v.494c0 .975.676 1.716 1.716 1.716s1.716-.741 1.716-1.716v-.494c0-.975-.676-1.716-1.716-1.716zm-.403 7.098v-.806h7.722v4.355h-.91V9.31h-6.812z"/>
            <circle cx="824" cy="7" r="7" fill="#FFD200"/>
            <circle cx="721" cy="7" r="7" fill="#2677CC"/>
        </g>
        <path stroke="#2677CC" stroke-width="2" d="M52.345 558.19l68.272-1.56h66.841l68.189-1.724 52.742-3.382 64.02-12.174 64.694-13.621 64.487-33.376 64.858-41.57 63.574-50.87 65.013-49.675 64.07-15.06 65.103-110.557L888.41 115.54"/>
        <path stroke="#FFD200" stroke-width="2" d="M178.567 558.453h65.337l64.39-1 63.849-.749 65.448-5.443 64.025-10.165 64.997-14.744 64.078-24.181 64.644-48.84 64.598-8.392 63.786-74.196 64.732-41.891"/>
        <g>
            <g transform="translate(176 325)">
                <use fill="#FFD200" xlink:href="#a"/>
                <circle cx="3.765" cy="234.26" r="4.5" stroke="#FFF" stroke-width="2"/>
            </g>
            <g transform="translate(176 325)">
                <use fill="#FFD200" xlink:href="#b"/>
                <circle cx="68.173" cy="234.26" r="4.5" stroke="#FFF" stroke-width="2"/>
            </g>
            <g transform="translate(176 325)">
                <use fill="#FFD200" xlink:href="#c"/>
                <circle cx="132.581" cy="231.945" r="4.5" stroke="#FFF" stroke-width="2"/>
            </g>
            <g transform="translate(176 325)">
                <use fill="#FFD200" xlink:href="#d"/>
                <circle cx="196.989" cy="230.402" r="4.5" stroke="#FFF" stroke-width="2"/>
            </g>
            <g transform="translate(176 325)">
                <use fill="#FFD200" xlink:href="#e"/>
                <circle cx="261.397" cy="225.001" r="4.5" stroke="#FFF" stroke-width="2"/>
            </g>
            <g transform="translate(176 325)">
                <use fill="#FFD200" xlink:href="#f"/>
                <circle cx="325.805" cy="215.741" r="4.5" stroke="#FFF" stroke-width="2"/>
            </g>
            <g transform="translate(176 325)">
                <use fill="#FFD200" xlink:href="#g"/>
                <circle cx="390.214" cy="200.308" r="4.5" stroke="#FFF" stroke-width="2"/>
            </g>
            <g transform="translate(176 325)">
                <use fill="#FFD200" xlink:href="#h"/>
                <circle cx="454.622" cy="177.159" r="4.5" stroke="#FFF" stroke-width="2"/>
            </g>
            <g transform="translate(176 325)">
                <use fill="#FFD200" xlink:href="#i"/>
                <circle cx="519.03" cy="128.932" r="4.5" stroke="#FFF" stroke-width="2"/>
            </g>
            <g transform="translate(176 325)">
                <use fill="#FFD200" xlink:href="#j"/>
                <circle cx="583.438" cy="119.287" r="4.5" stroke="#FFF" stroke-width="2"/>
            </g>
            <g transform="translate(176 325)">
                <use fill="#FFD200" xlink:href="#k"/>
                <circle cx="647.846" cy="45.5" r="4.5" stroke="#FFF" stroke-width="2"/>
            </g>
            <g transform="translate(176 325)">
                <use fill="#FFD200" xlink:href="#l"/>
                <circle cx="712.254" cy="3.5" r="4.5" stroke="#FFF" stroke-width="2"/>
            </g>
        </g>
        <g>
            <g transform="translate(47 111)">
                <use fill="#2677CC" xlink:href="#m"/>
                <circle cx="3.758" cy="447.288" r="4.5" stroke="#FFF" stroke-width="2"/>
            </g>
            <g transform="translate(47 111)">
                <use fill="#2677CC" xlink:href="#n"/>
                <circle cx="68.181" cy="446.135" r="4.5" stroke="#FFF" stroke-width="2"/>
            </g>
            <g transform="translate(47 111)">
                <use fill="#2677CC" xlink:href="#o"/>
                <circle cx="132.604" cy="445.367" r="4.5" stroke="#FFF" stroke-width="2"/>
            </g>
            <g transform="translate(47 111)">
                <use fill="#2677CC" xlink:href="#p"/>
                <circle cx="197.026" cy="444.598" r="4.5" stroke="#FFF" stroke-width="2"/>
            </g>
            <g transform="translate(47 111)">
                <use fill="#2677CC" xlink:href="#q"/>
                <circle cx="261.449" cy="440.371" r="4.5" stroke="#FFF" stroke-width="2"/>
            </g>
            <g transform="translate(47 111)">
                <use fill="#2677CC" xlink:href="#r"/>
                <circle cx="325.871" cy="427.69" r="4.5" stroke="#FFF" stroke-width="2"/>
            </g>
            <g transform="translate(47 111)">
                <use fill="#2677CC" xlink:href="#s"/>
                <circle cx="390.294" cy="413.856" r="4.5" stroke="#FFF" stroke-width="2"/>
            </g>
            <g transform="translate(47 111)">
                <use fill="#2677CC" xlink:href="#t"/>
                <circle cx="454.716" cy="381.193" r="4.5" stroke="#FFF" stroke-width="2"/>
            </g>
            <g transform="translate(47 111)">
                <use fill="#2677CC" xlink:href="#u"/>
                <circle cx="519.139" cy="339.307" r="4.5" stroke="#FFF" stroke-width="2"/>
            </g>
            <g transform="translate(47 111)">
                <use fill="#2677CC" xlink:href="#v"/>
                <circle cx="583.562" cy="289.735" r="4.5" stroke="#FFF" stroke-width="2"/>
            </g>
            <g transform="translate(47 111)">
                <use fill="#2677CC" xlink:href="#w"/>
                <circle cx="647.984" cy="240.164" r="4.5" stroke="#FFF" stroke-width="2"/>
            </g>
            <g transform="translate(47 111)">
                <use fill="#2677CC" xlink:href="#x"/>
                <circle cx="712.407" cy="224.793" r="4.5" stroke="#FFF" stroke-width="2"/>
            </g>
            <g transform="translate(47 111)">
                <use fill="#2677CC" xlink:href="#y"/>
                <circle cx="776.829" cy="113.5" r="4.5" stroke="#FFF" stroke-width="2"/>
            </g>
            <g transform="translate(47 111)">
                <use fill="#2677CC" xlink:href="#z"/>
                <circle cx="841.5" cy="3.5" r="4.5" stroke="#FFF" stroke-width="2"/>
            </g>
        </g>
    </g>
</svg>
